<svg width="550" height="550" viewBox="0 0 327 324" fill="none" xmlns="http://www.w3.org/2000/svg">
<path d="M2.528 162C2.528 204.435 19.3851 245.131 49.3909 275.137C79.3967 305.143 120.093 322 162.528 322C204.963 322 245.659 305.143 275.665 275.137C305.671 245.131 322.528 204.435 322.528 162C322.528 119.565 305.671 78.8687 275.665 48.8629C245.659 18.8571 204.963 2 162.528 2C120.093 2 79.3967 18.8571 49.3909 48.8629C19.3851 78.8687 2.528 119.565 2.528 162Z" fill="#E8F4FA" stroke="#DAEDF7" stroke-width="4"/>
<path opacity="0.15" d="M1 284.928C1 285.755 5.05068 286.575 12.9208 287.339C20.7909 288.103 32.3262 288.798 46.8682 289.383C61.4103 289.968 78.6742 290.432 97.6742 290.748C116.674 291.065 137.038 291.228 157.604 291.228C178.17 291.228 198.534 291.065 217.534 290.748C236.534 290.432 253.798 289.968 268.34 289.383C282.882 288.798 294.417 288.103 302.287 287.339C310.157 286.575 314.208 285.755 314.208 284.928C314.208 284.101 310.157 283.281 302.287 282.517C294.417 281.753 282.882 281.058 268.34 280.473C253.798 279.888 236.534 279.424 217.534 279.108C198.534 278.791 178.17 278.628 157.604 278.628C137.038 278.628 116.674 278.791 97.6742 279.108C78.6742 279.424 61.4103 279.888 46.8682 280.473C32.3262 281.058 20.7909 281.753 12.9208 282.517C5.05068 283.281 1 284.101 1 284.928Z" fill="#183D3D"/>
<path d="M192.024 255.776C180.992 255.776 167.468 294.176 128.636 278.14C110.212 270.54 74.564 293.484 60.956 271.34C60.156 270.036 59.204 268.36 59.204 268.36C88.74 271.16 81.128 247.16 115.728 254.584C117.557 254.941 119.443 254.878 121.244 254.402C123.045 253.925 124.715 253.047 126.128 251.832C127.553 250.644 128.701 249.159 129.492 247.48C130.284 245.802 130.698 243.971 130.708 242.116C130.715 240.321 130.368 238.541 129.687 236.88C129.005 235.219 128.002 233.709 126.736 232.436C125.469 231.164 123.964 230.153 122.307 229.463C120.649 228.773 118.871 228.418 117.076 228.416H110.396C98.5309 228.404 87.1551 223.686 78.7644 215.297C70.3738 206.908 65.6538 195.533 65.64 183.668C65.6508 177.782 66.8496 171.959 69.1645 166.548C71.4794 161.137 74.8628 156.249 79.112 152.176C80.8145 150.552 82.0456 148.498 82.6745 146.231C83.3034 143.964 83.3067 141.569 82.684 139.3C81.232 134.004 81.508 106.684 97.18 106.684L102.744 127.648C106.972 143.1 111.744 163.172 100.164 174.228C98.8902 175.447 97.8757 176.911 97.1815 178.532C96.4872 180.152 96.1276 181.897 96.124 183.66C96.1282 187.44 97.6316 191.063 100.304 193.736C102.977 196.408 106.6 197.912 110.38 197.916C113.056 197.916 115.705 197.389 118.178 196.365C120.65 195.341 122.896 193.84 124.788 191.948C126.68 190.056 128.181 187.81 129.205 185.338C130.229 182.865 130.756 180.216 130.756 177.54V91.036C130.887 74.8709 137.4 59.4123 148.877 48.0277C160.354 36.6431 175.864 30.2551 192.03 30.2551C208.196 30.2551 223.706 36.6431 235.183 48.0277C246.66 59.4123 253.173 74.8709 253.304 91.036V177.548C253.31 182.951 255.46 188.13 259.28 191.95C263.101 195.77 268.281 197.919 273.684 197.924C277.463 197.919 281.086 196.415 283.757 193.742C286.429 191.07 287.932 187.447 287.936 183.668C287.932 181.905 287.573 180.161 286.879 178.541C286.186 176.92 285.173 175.456 283.9 174.236C272.3 163.18 277.1 143.108 281.32 127.656L286.88 106.692C302.552 106.692 302.828 134.012 301.38 139.308C300.756 141.577 300.759 143.972 301.388 146.239C302.017 148.506 303.249 150.561 304.952 152.184C309.2 156.256 312.583 161.143 314.898 166.552C317.213 171.962 318.412 177.784 318.424 183.668C318.408 195.529 313.689 206.899 305.302 215.286C296.915 223.673 285.545 228.392 273.684 228.408H267.004C265.208 228.408 263.43 228.764 261.772 229.453C260.114 230.143 258.608 231.153 257.342 232.426C256.075 233.699 255.072 235.209 254.391 236.871C253.71 238.533 253.364 240.312 253.372 242.108C253.381 243.963 253.795 245.795 254.586 247.473C255.378 249.151 256.526 250.636 257.952 251.824C259.362 253.036 261.029 253.913 262.827 254.39C264.624 254.867 266.506 254.93 268.332 254.576C302.928 247.16 295.328 271.14 324.856 268.352C324.856 268.352 323.904 270.028 323.104 271.332C309.504 293.484 273.848 270.532 255.424 278.132C216.592 294.176 203.068 255.776 192.04 255.776H192.024Z" fill="#5C8374"/>
<path d="M192.032 45.052C200.079 45.052 208.047 46.637 215.481 49.7164C222.915 52.7959 229.67 57.3095 235.359 62.9996C241.049 68.6896 245.562 75.4447 248.641 82.879C251.72 90.3133 253.305 98.2813 253.304 106.328V91.036C253.369 82.9477 251.833 74.9265 248.783 67.4351C245.733 59.9436 241.23 53.1302 235.533 47.3876C229.837 41.6451 223.06 37.0872 215.594 33.9768C208.127 30.8663 200.119 29.2649 192.03 29.2649C183.941 29.2649 175.933 30.8663 168.466 33.9768C161 37.0872 154.223 41.6451 148.527 47.3876C142.83 53.1302 138.327 59.9436 135.277 67.4351C132.227 74.9265 130.691 82.9477 130.756 91.036V106.328C130.756 98.2811 132.341 90.313 135.42 82.8787C138.5 75.4443 143.013 68.6893 148.703 62.9993C154.393 57.3093 161.148 52.7958 168.583 49.7164C176.017 46.6369 183.985 45.052 192.032 45.052Z" fill="#93B1A6"/>
<path d="M192.024 255.776C180.992 255.776 167.468 294.176 128.636 278.14C110.212 270.54 74.564 293.484 60.956 271.34C60.156 270.036 59.204 268.36 59.204 268.36C79.828 282.668 94.428 259.128 129.484 266.008C179.264 275.78 160.124 246.808 192.056 255.784" fill="#B8ECFF"/>
<path d="M192.024 255.776C180.992 255.776 167.468 294.176 128.636 278.14C110.212 270.54 74.564 293.484 60.956 271.34C60.156 270.036 59.204 268.36 59.204 268.36C79.828 282.668 94.428 259.128 129.484 266.008C179.264 275.78 160.124 246.808 192.056 255.784" stroke="#183D3D" stroke-width="4" stroke-linecap="round" stroke-linejoin="round"/>
<path d="M254.596 266C204.816 275.772 223.956 246.8 192.024 255.776C203.052 255.776 216.576 294.176 255.408 278.14C273.832 270.54 309.484 293.488 323.088 271.34C323.888 270.036 324.84 268.36 324.84 268.36C304.152 282.884 289.728 259.104 254.596 266Z" fill="#B8ECFF" stroke="#183D3D" stroke-width="4" stroke-linecap="round" stroke-linejoin="round"/>
<path d="M192.024 255.776C180.992 255.776 167.468 294.176 128.636 278.14C110.212 270.54 74.564 293.484 60.956 271.34C60.156 270.036 59.204 268.36 59.204 268.36C88.74 271.16 81.128 247.16 115.728 254.584C117.557 254.941 119.443 254.878 121.244 254.402C123.045 253.925 124.715 253.047 126.128 251.832C127.553 250.644 128.701 249.159 129.492 247.48C130.284 245.802 130.698 243.971 130.708 242.116C130.715 240.321 130.368 238.541 129.687 236.88C129.005 235.219 128.002 233.709 126.736 232.436C125.469 231.164 123.964 230.153 122.307 229.463C120.649 228.773 118.871 228.418 117.076 228.416H110.396C98.5309 228.404 87.1551 223.686 78.7644 215.297C70.3738 206.908 65.6538 195.533 65.64 183.668C65.6508 177.782 66.8496 171.959 69.1645 166.548C71.4794 161.137 74.8628 156.249 79.112 152.176C80.8145 150.552 82.0456 148.498 82.6745 146.231C83.3034 143.964 83.3067 141.569 82.684 139.3C81.232 134.004 81.508 106.684 97.18 106.684L102.744 127.648C106.972 143.1 111.744 163.172 100.164 174.228C98.8902 175.447 97.8757 176.911 97.1815 178.532C96.4872 180.152 96.1276 181.897 96.124 183.66C96.1282 187.44 97.6316 191.063 100.304 193.736C102.977 196.408 106.6 197.912 110.38 197.916C113.056 197.916 115.705 197.389 118.178 196.365C120.65 195.341 122.896 193.84 124.788 191.948C126.68 190.056 128.181 187.81 129.205 185.338C130.229 182.865 130.756 180.216 130.756 177.54V91.036C130.887 74.8709 137.4 59.4123 148.877 48.0277C160.354 36.6431 175.864 30.2551 192.03 30.2551C208.196 30.2551 223.706 36.6431 235.183 48.0277C246.66 59.4123 253.173 74.8709 253.304 91.036V177.548C253.31 182.951 255.46 188.13 259.28 191.95C263.101 195.77 268.281 197.919 273.684 197.924C277.463 197.919 281.086 196.415 283.757 193.742C286.429 191.07 287.932 187.447 287.936 183.668C287.932 181.905 287.573 180.161 286.879 178.541C286.186 176.92 285.173 175.456 283.9 174.236C272.3 163.18 277.1 143.108 281.32 127.656L286.88 106.692C302.552 106.692 302.828 134.012 301.38 139.308C300.756 141.577 300.759 143.972 301.388 146.239C302.017 148.506 303.249 150.561 304.952 152.184C309.2 156.256 312.583 161.143 314.898 166.552C317.213 171.962 318.412 177.784 318.424 183.668C318.408 195.529 313.689 206.899 305.302 215.286C296.915 223.673 285.545 228.392 273.684 228.408H267.004C265.208 228.408 263.43 228.764 261.772 229.453C260.114 230.143 258.608 231.153 257.342 232.426C256.075 233.699 255.072 235.209 254.391 236.871C253.71 238.533 253.364 240.312 253.372 242.108C253.381 243.963 253.795 245.795 254.586 247.473C255.378 249.151 256.526 250.636 257.952 251.824C259.362 253.036 261.029 253.913 262.827 254.39C264.624 254.867 266.506 254.93 268.332 254.576C302.928 247.16 295.328 271.14 324.856 268.352C324.856 268.352 323.904 270.028 323.104 271.332C309.504 293.484 273.848 270.532 255.424 278.132C216.592 294.176 203.068 255.776 192.04 255.776H192.024Z" stroke="#183D3D" stroke-width="4" stroke-linecap="round" stroke-linejoin="round"/>
<path d="M162.128 80.188C162.128 88.119 165.279 95.7252 170.887 101.333C176.495 106.941 184.101 110.092 192.032 110.092C199.963 110.092 207.569 106.941 213.177 101.333C218.785 95.7252 221.936 88.119 221.936 80.188C221.936 72.257 218.785 64.6508 213.177 59.0427C207.569 53.4346 199.963 50.284 192.032 50.284C184.101 50.284 176.495 53.4346 170.887 59.0427C165.279 64.6508 162.128 72.257 162.128 80.188Z" fill="white"/>
<path d="M179.628 80.188C179.628 83.4777 180.935 86.6327 183.261 88.9589C185.587 91.2851 188.742 92.592 192.032 92.592C195.322 92.592 198.477 91.2851 200.803 88.9589C203.129 86.6327 204.436 83.4777 204.436 80.188C204.436 76.8983 203.129 73.7432 200.803 71.417C198.477 69.0908 195.322 67.784 192.032 67.784C188.742 67.784 185.587 69.0908 183.261 71.417C180.935 73.7432 179.628 76.8983 179.628 80.188Z" fill="#5C8374" stroke="#183D3D" stroke-width="4" stroke-linecap="round" stroke-linejoin="round"/>
<path d="M192.032 148.976C197.904 149.101 203.622 147.099 208.133 143.338C212.643 139.576 215.641 134.311 216.572 128.512C216.618 128.163 216.577 127.808 216.455 127.479C216.332 127.149 216.131 126.854 215.868 126.62C215.597 126.375 215.274 126.195 214.924 126.092C214.573 125.99 214.204 125.968 213.844 126.028C199.393 128.34 184.667 128.34 170.216 126.028C169.856 125.967 169.488 125.988 169.138 126.091C168.788 126.193 168.466 126.374 168.196 126.62C167.933 126.854 167.731 127.149 167.608 127.478C167.484 127.808 167.443 128.163 167.488 128.512C168.42 134.311 171.418 139.578 175.929 143.339C180.44 147.1 186.16 149.102 192.032 148.976Z" fill="#93B1A6" stroke="#183D3D" stroke-width="4" stroke-linecap="round" stroke-linejoin="round"/>
<path d="M285.328 147.336C285.328 149.002 285.799 150.599 286.638 151.777C287.476 152.954 288.614 153.616 289.8 153.616C290.986 153.616 292.124 152.954 292.962 151.777C293.801 150.599 294.272 149.002 294.272 147.336C294.272 145.67 293.801 144.073 292.962 142.895C292.124 141.718 290.986 141.056 289.8 141.056C288.614 141.056 287.476 141.718 286.638 142.895C285.799 144.073 285.328 145.67 285.328 147.336Z" fill="#5C8374" stroke="#183D3D" stroke-width="4" stroke-linecap="round" stroke-linejoin="round"/>
<path d="M297.23 176.945C297.692 178.545 298.588 179.949 299.72 180.848C300.853 181.746 302.129 182.066 303.269 181.737C304.408 181.408 305.318 180.457 305.797 179.093C306.275 177.729 306.285 176.063 305.823 174.463C305.361 172.863 304.465 171.459 303.332 170.56C302.2 169.662 300.923 169.341 299.784 169.671C298.644 170 297.735 170.951 297.256 172.315C296.777 173.679 296.768 175.345 297.23 176.945Z" fill="#5C8374" stroke="#183D3D" stroke-width="4" stroke-linecap="round" stroke-linejoin="round"/>
<path d="M287.419 210.491C288.234 211.352 289.496 211.724 290.928 211.524C292.36 211.323 293.844 210.568 295.054 209.423C296.264 208.278 297.1 206.838 297.379 205.42C297.659 204.001 297.358 202.72 296.542 201.859C295.727 200.997 294.465 200.626 293.033 200.826C291.601 201.026 290.117 201.781 288.907 202.926C287.697 204.071 286.861 205.511 286.582 206.929C286.302 208.348 286.603 209.629 287.419 210.491Z" fill="#5C8374" stroke="#183D3D" stroke-width="4" stroke-linecap="round" stroke-linejoin="round"/>
<path d="M160.948 176.82C160.952 174.663 160.189 172.575 158.794 170.929C157.4 169.284 155.465 168.188 153.337 167.838C151.209 167.488 149.025 167.907 147.177 169.02C145.33 170.133 143.938 171.867 143.252 173.912C140.9 179.612 134.224 181.376 131.372 173.584C130.78 172.034 129.776 170.675 128.468 169.654C127.16 168.633 125.597 167.989 123.95 167.792C122.302 167.595 120.632 167.853 119.12 168.537C117.608 169.22 116.312 170.305 115.371 171.672C114.431 173.039 113.883 174.638 113.786 176.294C113.688 177.951 114.046 179.602 114.819 181.07C115.593 182.538 116.753 183.767 118.175 184.623C119.596 185.479 121.225 185.931 122.884 185.928L127.324 199.888V220.876C127.269 223.799 126.069 226.583 123.982 228.63C121.896 230.678 119.089 231.825 116.166 231.825C113.243 231.825 110.436 230.678 108.35 228.63C106.263 226.583 105.063 223.799 105.008 220.876C105.007 211.168 101.15 201.859 94.2858 194.994C87.4214 188.13 78.1117 184.273 68.404 184.272H53.112C43.4071 184.278 34.1019 188.138 27.2418 195.003C20.3816 201.867 16.528 211.175 16.528 220.88V250C16.5286 254.125 18.1394 258.086 21.0172 261.041C23.8951 263.996 27.8128 265.711 31.936 265.82V296.828C31.141 296.592 30.3172 296.467 29.488 296.456C27.6992 296.448 25.9472 296.964 24.4481 297.94C22.9489 298.916 21.7681 300.309 21.0513 301.948C20.3345 303.587 20.1131 305.4 20.4142 307.163C20.7154 308.926 21.526 310.563 22.7462 311.871C23.9663 313.179 25.5426 314.101 27.2807 314.524C29.0188 314.947 30.8427 314.852 32.5274 314.251C34.2122 313.65 35.6841 312.568 36.7618 311.141C37.8394 309.713 38.4756 308.001 38.592 306.216H38.712C38.8139 307.772 39.3123 309.276 40.1598 310.586C41.0072 311.895 42.1756 312.965 43.5537 313.695C44.9318 314.426 46.4738 314.791 48.033 314.757C49.5921 314.722 51.1166 314.29 52.4613 313.5C53.8061 312.71 54.9264 311.589 55.7156 310.244C56.5049 308.899 56.9368 307.375 56.9704 305.815C57.0039 304.256 56.6379 302.714 55.9073 301.337C55.1766 299.959 54.1055 298.791 52.796 297.944V275.188C52.796 274.202 52.9903 273.225 53.3678 272.313C53.7453 271.402 54.2987 270.574 54.9962 269.876C55.6938 269.179 56.5219 268.625 57.4333 268.248C58.3447 267.87 59.3215 267.676 60.308 267.676C61.2945 267.676 62.2713 267.87 63.1827 268.248C64.0941 268.625 64.9222 269.179 65.6198 269.876C66.3173 270.574 66.8707 271.402 67.2482 272.313C67.6257 273.225 67.82 274.202 67.82 275.188V297.084C66.2623 297.681 64.8975 298.693 63.873 300.009C62.8485 301.326 62.2034 302.898 62.0074 304.554C61.8114 306.211 62.0719 307.89 62.7608 309.409C63.4498 310.928 64.5409 312.23 65.9162 313.175C67.2915 314.119 68.8988 314.669 70.5642 314.766C72.2296 314.863 73.8898 314.503 75.3654 313.725C76.841 312.946 78.0758 311.78 78.9364 310.351C79.7969 308.921 80.2505 307.284 80.248 305.616C80.2437 307.421 80.7724 309.186 81.7677 310.692C82.7631 312.197 84.1808 313.375 85.843 314.078C87.5052 314.781 89.3379 314.977 91.1113 314.643C92.8847 314.308 94.5199 313.457 95.8116 312.197C97.1033 310.937 97.9942 309.323 98.3724 307.558C98.7507 305.794 98.5995 303.957 97.9378 302.278C97.2761 300.599 96.1333 299.152 94.6529 298.12C93.1725 297.088 91.4203 296.516 89.616 296.476V220.876C89.5729 224.392 90.2281 227.882 91.5438 231.143C92.8596 234.404 94.8095 237.371 97.2807 239.873C99.7519 242.374 102.695 244.361 105.94 245.716C109.184 247.072 112.666 247.77 116.182 247.77C119.698 247.77 123.18 247.072 126.424 245.716C129.669 244.361 132.612 242.374 135.083 239.873C137.554 237.371 139.504 234.404 140.82 231.143C142.136 227.882 142.791 224.392 142.748 220.876V199.888C145.801 195.413 148.51 190.713 150.852 185.828C152.132 186.03 153.44 185.946 154.684 185.581C155.927 185.217 157.074 184.58 158.041 183.719C159.009 182.857 159.773 181.791 160.278 180.598C160.784 179.405 161.018 178.115 160.964 176.82H160.948Z" fill="#5C8374"/>
<path d="M105.668 224.66C105.229 223.447 105.006 222.166 105.008 220.876C105.007 211.168 101.15 201.859 94.2858 194.994C87.4214 188.13 78.1117 184.273 68.404 184.272H53.112C43.4071 184.278 34.1019 188.138 27.2418 195.003C20.3816 201.867 16.528 211.175 16.528 220.88V234.48C16.5914 224.815 20.4747 215.567 27.3307 208.755C34.1867 201.942 43.4588 198.118 53.124 198.116H68.416C76.3808 198.12 84.1269 200.722 90.4793 205.527C96.8317 210.332 101.444 217.077 103.616 224.74L105.668 224.66Z" fill="#93B1A6"/>
<path d="M160.948 176.82C160.952 174.663 160.189 172.575 158.794 170.929C157.4 169.284 155.465 168.188 153.337 167.838C151.209 167.488 149.025 167.907 147.177 169.02C145.33 170.133 143.938 171.867 143.252 173.912C140.9 179.612 134.224 181.376 131.372 173.584C130.78 172.034 129.776 170.675 128.468 169.654C127.16 168.633 125.597 167.989 123.95 167.792C122.302 167.595 120.632 167.853 119.12 168.537C117.608 169.22 116.312 170.305 115.371 171.672C114.431 173.039 113.883 174.638 113.786 176.294C113.688 177.951 114.046 179.602 114.819 181.07C115.593 182.538 116.753 183.767 118.175 184.623C119.596 185.479 121.225 185.931 122.884 185.928L127.324 199.888V220.876C127.269 223.799 126.069 226.583 123.982 228.63C121.896 230.678 119.089 231.825 116.166 231.825C113.243 231.825 110.436 230.678 108.35 228.63C106.263 226.583 105.063 223.799 105.008 220.876C105.007 211.168 101.15 201.859 94.2858 194.994C87.4214 188.13 78.1117 184.273 68.404 184.272H53.112C43.4071 184.278 34.1019 188.138 27.2418 195.003C20.3816 201.867 16.528 211.175 16.528 220.88V250C16.5286 254.125 18.1394 258.086 21.0172 261.041C23.8951 263.996 27.8128 265.711 31.936 265.82V296.828C31.141 296.592 30.3172 296.467 29.488 296.456C27.6992 296.448 25.9472 296.964 24.4481 297.94C22.9489 298.916 21.7681 300.309 21.0513 301.948C20.3345 303.587 20.1131 305.4 20.4142 307.163C20.7154 308.926 21.526 310.563 22.7462 311.871C23.9663 313.179 25.5426 314.101 27.2807 314.524C29.0188 314.947 30.8427 314.852 32.5274 314.251C34.2122 313.65 35.6841 312.568 36.7618 311.141C37.8394 309.713 38.4756 308.001 38.592 306.216H38.712C38.8139 307.772 39.3123 309.276 40.1598 310.586C41.0072 311.895 42.1756 312.965 43.5537 313.695C44.9318 314.426 46.4738 314.791 48.033 314.757C49.5921 314.722 51.1166 314.29 52.4613 313.5C53.8061 312.71 54.9264 311.589 55.7156 310.244C56.5049 308.899 56.9368 307.375 56.9704 305.815C57.0039 304.256 56.6379 302.714 55.9073 301.337C55.1766 299.959 54.1055 298.791 52.796 297.944V275.188C52.796 274.202 52.9903 273.225 53.3678 272.313C53.7453 271.402 54.2987 270.574 54.9962 269.876C55.6938 269.179 56.5219 268.625 57.4333 268.248C58.3447 267.87 59.3215 267.676 60.308 267.676C61.2945 267.676 62.2713 267.87 63.1827 268.248C64.0941 268.625 64.9222 269.179 65.6198 269.876C66.3173 270.574 66.8707 271.402 67.2482 272.313C67.6257 273.225 67.82 274.202 67.82 275.188V297.084C66.2623 297.681 64.8975 298.693 63.873 300.009C62.8485 301.326 62.2034 302.898 62.0074 304.554C61.8114 306.211 62.0719 307.89 62.7608 309.409C63.4498 310.928 64.5409 312.23 65.9162 313.175C67.2915 314.119 68.8988 314.669 70.5642 314.766C72.2296 314.863 73.8898 314.503 75.3654 313.725C76.841 312.946 78.0758 311.78 78.9364 310.351C79.7969 308.921 80.2505 307.284 80.248 305.616C80.2437 307.421 80.7724 309.186 81.7677 310.692C82.7631 312.197 84.1808 313.375 85.843 314.078C87.5052 314.781 89.3379 314.977 91.1113 314.643C92.8847 314.308 94.5199 313.457 95.8116 312.197C97.1033 310.937 97.9942 309.323 98.3724 307.558C98.7507 305.794 98.5995 303.957 97.9378 302.278C97.2761 300.599 96.1334 299.152 94.6529 298.12C93.1725 297.088 91.4203 296.516 89.616 296.476V220.876C89.5729 224.392 90.2281 227.882 91.5438 231.143C92.8596 234.404 94.8095 237.371 97.2807 239.873C99.7519 242.374 102.695 244.361 105.94 245.716C109.184 247.072 112.666 247.77 116.182 247.77C119.698 247.77 123.18 247.072 126.424 245.716C129.669 244.361 132.612 242.374 135.083 239.873C137.554 237.371 139.504 234.404 140.82 231.143C142.136 227.882 142.791 224.392 142.748 220.876V199.888C145.801 195.413 148.51 190.713 150.852 185.828C152.132 186.03 153.44 185.946 154.684 185.581C155.927 185.217 157.074 184.58 158.041 183.719C159.009 182.857 159.773 181.791 160.278 180.598C160.784 179.405 161.018 178.115 160.964 176.82H160.948Z" stroke="#183D3D" stroke-width="4" stroke-linecap="round" stroke-linejoin="round"/>
<path d="M110.104 131.728C110.104 157.204 68.904 190.392 60.756 190.392C52.608 190.392 11.408 157.204 11.408 131.728C11.408 106.252 33.504 88.844 60.756 88.844C88.008 88.844 110.104 106.248 110.104 131.728Z" fill="#5C8374"/>
<path d="M68.736 168.256C66.6192 170.372 63.7489 171.56 60.756 171.56C57.7631 171.56 54.8928 170.372 52.776 168.256" stroke="#183D3D" stroke-width="4" stroke-linecap="round" stroke-linejoin="round"/>
<path d="M31.916 265.82V214.044" stroke="#183D3D" stroke-width="4" stroke-linecap="round" stroke-linejoin="round"/>
<path d="M109.28 138.272C109.812 136.131 110.089 133.934 110.104 131.728C110.104 106.248 88.008 88.844 60.756 88.844C33.504 88.844 11.408 106.248 11.408 131.728C11.4224 133.932 11.7004 136.126 12.236 138.264C16.4 117.3 36.52 103.516 60.756 103.516C84.992 103.516 105.116 117.3 109.28 138.272Z" fill="#93B1A6"/>
<path d="M110.104 131.728C110.104 157.204 68.904 190.392 60.756 190.392C52.608 190.392 11.408 157.204 11.408 131.728C11.408 106.252 33.504 88.844 60.756 88.844C88.008 88.844 110.104 106.248 110.104 131.728Z" stroke="#183D3D" stroke-width="4" stroke-linecap="round" stroke-linejoin="round"/>
<path d="M74.4664 149.413C75.8616 150.144 77.4246 150.521 79.0661 150.522C80.7076 150.523 82.3955 150.15 84.0334 149.422C85.6713 148.694 87.2271 147.627 88.6121 146.28C89.997 144.934 91.1839 143.336 92.1051 141.576C93.0262 139.817 93.6635 137.93 93.9806 136.025C94.2977 134.12 94.2884 132.233 93.9532 130.473C93.618 128.712 92.9635 127.112 92.027 125.764C91.0905 124.416 89.8904 123.346 88.4952 122.615C87.1 121.885 85.537 121.508 83.8955 121.507C82.254 121.506 80.5661 121.879 78.9282 122.607C77.2903 123.335 75.7345 124.402 74.3496 125.748C72.9646 127.095 71.7777 128.693 70.8566 130.453C69.9354 132.212 69.2981 134.098 68.981 136.004C68.6639 137.909 68.6732 139.796 69.0084 141.556C69.3436 143.317 69.9982 144.917 70.9347 146.265C71.8711 147.613 73.0712 148.683 74.4664 149.413Z" fill="#656769"/>
<path d="M69.296 134.496C68.3572 137.202 68.3569 140.145 69.2952 142.851C70.2335 145.557 72.0557 147.868 74.468 149.412C80.332 152.484 88.228 148.976 92.104 141.576C94.1699 137.815 94.7262 133.408 93.66 129.252C93.3205 130.739 92.7979 132.178 92.104 133.536C88.232 140.932 80.332 144.444 74.464 141.372C73.1707 140.65 72.0427 139.665 71.1527 138.481C70.2627 137.296 69.6302 135.939 69.296 134.496Z" fill="#183D3D"/>
<path d="M74.4664 149.413C75.8616 150.144 77.4246 150.521 79.0661 150.522C80.7076 150.523 82.3955 150.15 84.0334 149.422C85.6713 148.694 87.2271 147.627 88.6121 146.28C89.997 144.934 91.1839 143.336 92.1051 141.576C93.0262 139.817 93.6635 137.93 93.9806 136.025C94.2977 134.12 94.2884 132.233 93.9532 130.473C93.618 128.712 92.9635 127.112 92.027 125.764C91.0905 124.416 89.8904 123.346 88.4952 122.615C87.1 121.885 85.537 121.508 83.8955 121.507C82.254 121.506 80.5661 121.879 78.9282 122.607C77.2903 123.335 75.7345 124.402 74.3496 125.748C72.9646 127.095 71.7777 128.693 70.8566 130.453C69.9354 132.212 69.2981 134.098 68.981 136.004C68.6639 137.909 68.6732 139.796 69.0084 141.556C69.3436 143.317 69.9982 144.917 70.9347 146.265C71.8711 147.613 73.0712 148.683 74.4664 149.413Z" stroke="#183D3D" stroke-width="4" stroke-linecap="round" stroke-linejoin="round"/>
<path d="M29.3995 141.579C30.3207 143.338 31.5076 144.937 32.8925 146.283C34.2775 147.629 35.8333 148.697 37.4712 149.424C39.1091 150.152 40.797 150.526 42.4385 150.525C44.08 150.523 45.6429 150.146 47.0381 149.416C48.4333 148.686 49.6334 147.616 50.5699 146.268C51.5064 144.92 52.1609 143.319 52.4961 141.559C52.8314 139.798 52.8407 137.911 52.5236 136.006C52.2065 134.101 51.5691 132.215 50.648 130.455C49.7269 128.696 48.5399 127.097 47.155 125.751C45.7701 124.405 44.2142 123.337 42.5763 122.61C40.9384 121.882 39.2505 121.508 37.609 121.51C35.9675 121.511 34.4046 121.888 33.0094 122.618C31.6142 123.348 30.4141 124.418 29.4776 125.766C28.5411 127.114 27.8866 128.715 27.5514 130.475C27.2162 132.236 27.2068 134.123 27.524 136.028C27.8411 137.933 28.4784 139.819 29.3995 141.579Z" fill="#656769"/>
<path d="M52.208 134.496C53.1479 137.201 53.1492 140.144 52.2116 142.851C51.274 145.557 49.4522 147.868 47.04 149.412C41.172 152.484 33.276 148.976 29.404 141.576C27.3368 137.816 26.779 133.409 27.844 129.252C28.1867 130.738 28.7106 132.177 29.404 133.536C33.276 140.932 41.172 144.444 47.04 141.372C48.3338 140.65 49.4621 139.666 50.3522 138.481C51.2423 137.297 51.8745 135.939 52.208 134.496Z" fill="#183D3D"/>
<path d="M29.3995 141.579C30.3207 143.338 31.5076 144.937 32.8925 146.283C34.2775 147.629 35.8333 148.697 37.4712 149.424C39.1091 150.152 40.797 150.526 42.4385 150.525C44.08 150.523 45.6429 150.146 47.0381 149.416C48.4333 148.686 49.6334 147.616 50.5699 146.268C51.5064 144.92 52.1609 143.319 52.4961 141.559C52.8314 139.798 52.8407 137.911 52.5236 136.006C52.2065 134.101 51.5691 132.215 50.648 130.455C49.7269 128.696 48.5399 127.097 47.155 125.751C45.7701 124.405 44.2142 123.337 42.5763 122.61C40.9384 121.882 39.2505 121.508 37.609 121.51C35.9675 121.511 34.4046 121.888 33.0094 122.618C31.6142 123.348 30.4141 124.418 29.4776 125.766C28.5411 127.114 27.8866 128.715 27.5514 130.475C27.2162 132.236 27.2068 134.123 27.524 136.028C27.8411 137.933 28.4784 139.819 29.3995 141.579V141.579Z" stroke="#183D3D" stroke-width="4" stroke-linecap="round" stroke-linejoin="round"/>
<path d="M221.564 84.904C222.242 80.6338 221.986 76.2674 220.814 72.1057C219.641 67.944 217.58 64.0861 214.773 60.7978C211.966 57.5095 208.479 54.8691 204.552 53.0585C200.626 51.248 196.354 50.3104 192.03 50.3104C187.706 50.3104 183.434 51.248 179.508 53.0585C175.581 54.8691 172.094 57.5095 169.287 60.7978C166.48 64.0861 164.419 67.944 163.246 72.1057C162.074 76.2674 161.818 80.6338 162.496 84.904C163.556 77.8298 167.121 71.3712 172.541 66.7031C177.961 62.0349 184.877 59.4673 192.03 59.4673C199.183 59.4673 206.099 62.0349 211.519 66.7031C216.939 71.3712 220.504 77.8298 221.564 84.904Z" fill="white"/>
<path d="M162.128 80.188C162.128 88.119 165.279 95.7252 170.887 101.333C176.495 106.941 184.101 110.092 192.032 110.092C199.963 110.092 207.569 106.941 213.177 101.333C218.785 95.7252 221.936 88.119 221.936 80.188C221.936 72.257 218.785 64.6508 213.177 59.0427C207.569 53.4346 199.963 50.284 192.032 50.284C184.101 50.284 176.495 53.4346 170.887 59.0427C165.279 64.6508 162.128 72.257 162.128 80.188V80.188Z" stroke="#183D3D" stroke-width="4" stroke-linecap="round" stroke-linejoin="round"/>
</svg>
