<svg width="332" height="327" viewBox="0 0 332 327" fill="none" xmlns="http://www.w3.org/2000/svg">
<path d="M171.412 326.888C259.778 326.888 331.412 255.254 331.412 166.888C331.412 78.5224 259.778 6.888 171.412 6.888C83.0464 6.888 11.412 78.5224 11.412 166.888C11.412 255.254 83.0464 326.888 171.412 326.888Z" fill="#D9EDFF"/>
<path d="M236.124 276.804L182.132 188.064M166.908 302.984L236.124 276.804L166.908 302.984ZM13.352 119.332L71.964 270.88L13.352 119.332ZM164.168 13.352L89.096 54.796L164.168 13.352ZM13.352 119.332L89.096 54.796L13.352 119.332ZM227.016 37.752L164.168 13.352L227.016 37.752ZM261.092 74.736L227.016 37.752L261.092 74.736ZM308.476 91.004L261.092 74.736L308.476 91.004ZM287.94 156.648L236.124 276.804L287.94 156.648ZM310.652 243.216L236.124 276.804L310.652 243.216ZM89.096 54.796L227.016 37.752L89.096 54.796ZM88.3 207.796L71.964 270.88L88.3 207.796ZM13.352 119.332L88.3 207.796L13.352 119.332ZM166.908 302.984L88.3 207.796L166.908 302.984ZM89.92 125.808L166.908 110.7L89.92 125.808ZM227.016 37.752L182.132 188.064L227.016 37.752ZM287.94 156.648L261.092 74.736L287.94 156.648ZM182.132 188.064L166.908 110.7L227.016 37.752L182.132 188.064Z" stroke="#5C8374" stroke-width="4" stroke-linecap="round" stroke-linejoin="round"/>
<path d="M182.032 187.416L166.908 302.984L71.964 270.88" stroke="#5C8374" stroke-width="4" stroke-linecap="round" stroke-linejoin="round"/>
<path d="M166.908 122.052C173.178 122.052 178.26 116.97 178.26 110.7C178.26 104.43 173.178 99.348 166.908 99.348C160.638 99.348 155.556 104.43 155.556 110.7C155.556 116.97 160.638 122.052 166.908 122.052Z" fill="white" stroke="#5C8374" stroke-width="4" stroke-linecap="round" stroke-linejoin="round"/>
<path d="M182.132 188.064L261.092 74.736L182.132 188.064Z" fill="white"/>
<path d="M182.132 188.064L261.092 74.736" stroke="#5C8374" stroke-width="4" stroke-linecap="round" stroke-linejoin="round"/>
<path d="M261.092 86.088C267.362 86.088 272.444 81.0055 272.444 74.736C272.444 68.4665 267.362 63.384 261.092 63.384C254.822 63.384 249.74 68.4665 249.74 74.736C249.74 81.0055 254.822 86.088 261.092 86.088Z" fill="white" stroke="#5C8374" stroke-width="4" stroke-linecap="round" stroke-linejoin="round"/>
<path d="M308.476 102.356C314.746 102.356 319.828 97.2735 319.828 91.004C319.828 84.7345 314.746 79.652 308.476 79.652C302.206 79.652 297.124 84.7345 297.124 91.004C297.124 97.2735 302.206 102.356 308.476 102.356Z" fill="white" stroke="#5C8374" stroke-width="4" stroke-linecap="round" stroke-linejoin="round"/>
<path d="M310.652 254.568C316.922 254.568 322.004 249.486 322.004 243.216C322.004 236.946 316.922 231.864 310.652 231.864C304.382 231.864 299.3 236.946 299.3 243.216C299.3 249.486 304.382 254.568 310.652 254.568Z" fill="white" stroke="#5C8374" stroke-width="4" stroke-linecap="round" stroke-linejoin="round"/>
<path d="M227.016 49.104C233.286 49.104 238.368 44.0215 238.368 37.752C238.368 31.4825 233.286 26.4 227.016 26.4C220.746 26.4 215.664 31.4825 215.664 37.752C215.664 44.0215 220.746 49.104 227.016 49.104Z" fill="white" stroke="#5C8374" stroke-width="4" stroke-linecap="round" stroke-linejoin="round"/>
<path d="M89.052 66.148C95.3215 66.148 100.404 61.0655 100.404 54.796C100.404 48.5265 95.3215 43.444 89.052 43.444C82.7825 43.444 77.7 48.5265 77.7 54.796C77.7 61.0655 82.7825 66.148 89.052 66.148Z" fill="white" stroke="#5C8374" stroke-width="4" stroke-linecap="round" stroke-linejoin="round"/>
<path d="M13.352 131.156C19.6215 131.156 24.704 126.074 24.704 119.804C24.704 113.534 19.6215 108.452 13.352 108.452C7.08246 108.452 2 113.534 2 119.804C2 126.074 7.08246 131.156 13.352 131.156Z" fill="white" stroke="#5C8374" stroke-width="4" stroke-linecap="round" stroke-linejoin="round"/>
<path d="M164.168 24.704C170.438 24.704 175.52 19.6215 175.52 13.352C175.52 7.08246 170.438 2 164.168 2C157.898 2 152.816 7.08246 152.816 13.352C152.816 19.6215 157.898 24.704 164.168 24.704Z" fill="white" stroke="#5C8374" stroke-width="4" stroke-linecap="round" stroke-linejoin="round"/>
<path d="M166.908 313.832C173.178 313.832 178.26 308.75 178.26 302.48C178.26 296.21 173.178 291.128 166.908 291.128C160.638 291.128 155.556 296.21 155.556 302.48C155.556 308.75 160.638 313.832 166.908 313.832Z" fill="white" stroke="#5C8374" stroke-width="4" stroke-linecap="round" stroke-linejoin="round"/>
<path d="M71.964 282.232C78.2335 282.232 83.316 277.15 83.316 270.88C83.316 264.61 78.2335 259.528 71.964 259.528C65.6945 259.528 60.612 264.61 60.612 270.88C60.612 277.15 65.6945 282.232 71.964 282.232Z" fill="white" stroke="#5C8374" stroke-width="4" stroke-linecap="round" stroke-linejoin="round"/>
<path d="M88.3 219.148C94.5695 219.148 99.652 214.066 99.652 207.796C99.652 201.526 94.5695 196.444 88.3 196.444C82.0305 196.444 76.948 201.526 76.948 207.796C76.948 214.066 82.0305 219.148 88.3 219.148Z" fill="white" stroke="#5C8374" stroke-width="4" stroke-linecap="round" stroke-linejoin="round"/>
<path d="M89.92 147.02C105.806 147.02 118.684 134.142 118.684 118.256C118.684 102.37 105.806 89.492 89.92 89.492C74.0341 89.492 61.156 102.37 61.156 118.256C61.156 134.142 74.0341 147.02 89.92 147.02Z" fill="white" stroke="#5C8374" stroke-width="4" stroke-linecap="round" stroke-linejoin="round"/>
<path d="M109.152 139.644C103.872 144.386 97.0263 147.008 89.93 147.008C82.8337 147.008 75.9877 144.386 70.708 139.644C72.2959 135.862 74.9651 132.634 78.3808 130.364C81.7965 128.093 85.8066 126.882 89.908 126.882C94.0094 126.882 98.0195 128.093 101.435 130.364C104.851 132.634 107.52 135.862 109.108 139.644" fill="#183D3D"/>
<path d="M109.152 139.644C103.872 144.386 97.0263 147.008 89.93 147.008C82.8337 147.008 75.9877 144.386 70.708 139.644C72.2959 135.862 74.9651 132.634 78.3808 130.364C81.7965 128.093 85.8066 126.882 89.908 126.882C94.0094 126.882 98.0195 128.093 101.435 130.364C104.851 132.634 107.52 135.862 109.108 139.644" stroke="#5C8374" stroke-width="4" stroke-linecap="round" stroke-linejoin="round"/>
<path d="M182.136 230.332C205.48 230.332 224.404 211.408 224.404 188.064C224.404 164.72 205.48 145.796 182.136 145.796C158.792 145.796 139.868 164.72 139.868 188.064C139.868 211.408 158.792 230.332 182.136 230.332Z" fill="white" stroke="#5C8374" stroke-width="4" stroke-linecap="round" stroke-linejoin="round"/>
<path d="M168.536 187.084C168.536 190.691 169.969 194.15 172.519 196.701C175.07 199.251 178.529 200.684 182.136 200.684C185.743 200.684 189.202 199.251 191.753 196.701C194.303 194.15 195.736 190.691 195.736 187.084V180.284C195.736 176.677 194.303 173.218 191.753 170.667C189.202 168.117 185.743 166.684 182.136 166.684C178.529 166.684 175.07 168.117 172.519 170.667C169.969 173.218 168.536 176.677 168.536 180.284V187.084Z" fill="white" stroke="#5C8374" stroke-width="4" stroke-linecap="round" stroke-linejoin="round"/>
<path d="M210.388 219.5C202.63 226.47 192.569 230.325 182.14 230.325C171.711 230.325 161.65 226.47 153.892 219.5C156.214 213.929 160.131 209.168 165.152 205.818C170.173 202.468 176.072 200.678 182.108 200.673C188.144 200.668 194.046 202.448 199.073 205.789C204.099 209.131 208.025 213.885 210.356 219.452" fill="#183D3D"/>
<path d="M210.388 219.5C202.63 226.47 192.569 230.325 182.14 230.325C171.711 230.325 161.65 226.47 153.892 219.5C156.214 213.929 160.131 209.168 165.152 205.818C170.173 202.468 176.072 200.678 182.108 200.673C188.144 200.668 194.046 202.448 199.073 205.789C204.099 209.131 208.025 213.885 210.356 219.452" stroke="#5C8374" stroke-width="4" stroke-linecap="round" stroke-linejoin="round"/>
<path d="M168.648 178.528C169.002 175.781 170.186 173.208 172.042 171.153C173.898 169.097 176.337 167.657 179.033 167.025C181.73 166.393 184.555 166.6 187.131 167.617C189.706 168.633 191.911 170.413 193.448 172.716C190.228 175.84 186.22 178.03 181.852 179.054C177.484 180.077 172.921 179.896 168.648 178.528Z" fill="white" stroke="#5C8374" stroke-width="4" stroke-linecap="round" stroke-linejoin="round"/>
<path d="M287.94 183.34C303.826 183.34 316.704 170.462 316.704 154.576C316.704 138.69 303.826 125.812 287.94 125.812C272.054 125.812 259.176 138.69 259.176 154.576C259.176 170.462 272.054 183.34 287.94 183.34Z" fill="white" stroke="#5C8374" stroke-width="4" stroke-linecap="round" stroke-linejoin="round"/>
<path d="M278.684 153.908C278.684 156.363 279.659 158.717 281.395 160.453C283.131 162.189 285.485 163.164 287.94 163.164C290.395 163.164 292.749 162.189 294.485 160.453C296.221 158.717 297.196 156.363 297.196 153.908V149.28C297.196 146.825 296.221 144.471 294.485 142.735C292.749 140.999 290.395 140.024 287.94 140.024C285.485 140.024 283.131 140.999 281.395 142.735C279.659 144.471 278.684 146.825 278.684 149.28V153.908Z" fill="white" stroke="#5C8374" stroke-width="4" stroke-linecap="round" stroke-linejoin="round"/>
<path d="M307.168 175.968C301.888 180.712 295.042 183.336 287.944 183.336C280.846 183.336 274 180.712 268.72 175.968C270.301 172.177 272.967 168.937 276.384 166.658C279.801 164.378 283.816 163.16 287.923 163.157C292.031 163.153 296.048 164.365 299.469 166.639C302.889 168.913 305.561 172.147 307.148 175.936" fill="#183D3D"/>
<path d="M307.168 175.968C301.888 180.712 295.042 183.336 287.944 183.336C280.846 183.336 274 180.712 268.72 175.968C270.301 172.177 272.967 168.937 276.384 166.658C279.801 164.378 283.816 163.16 287.923 163.157C292.031 163.153 296.048 164.365 299.469 166.639C302.889 168.913 305.561 172.147 307.148 175.936" stroke="#5C8374" stroke-width="4" stroke-linecap="round" stroke-linejoin="round"/>
<path d="M278.76 148.084C279.003 146.217 279.81 144.469 281.072 143.073C282.334 141.677 283.992 140.698 285.825 140.269C287.658 139.839 289.578 139.978 291.329 140.667C293.081 141.357 294.58 142.564 295.628 144.128C293.437 146.251 290.711 147.741 287.741 148.437C284.77 149.134 281.667 149.012 278.76 148.084Z" fill="white" stroke="#5C8374" stroke-width="4" stroke-linecap="round" stroke-linejoin="round"/>
<path d="M236.124 305.468C252.01 305.468 264.888 292.59 264.888 276.704C264.888 260.818 252.01 247.94 236.124 247.94C220.238 247.94 207.36 260.818 207.36 276.704C207.36 292.59 220.238 305.468 236.124 305.468Z" fill="white" stroke="#5C8374" stroke-width="4" stroke-linecap="round" stroke-linejoin="round"/>
<path d="M226.868 276.044C226.868 278.499 227.843 280.853 229.579 282.589C231.315 284.325 233.669 285.3 236.124 285.3C238.579 285.3 240.933 284.325 242.669 282.589C244.405 280.853 245.38 278.499 245.38 276.044V271.412C245.38 268.957 244.405 266.603 242.669 264.867C240.933 263.131 238.579 262.156 236.124 262.156C233.669 262.156 231.315 263.131 229.579 264.867C227.843 266.603 226.868 268.957 226.868 271.412V276.044Z" fill="white" stroke="#5C8374" stroke-width="4" stroke-linecap="round" stroke-linejoin="round"/>
<path d="M255.352 298.1C250.071 302.841 243.225 305.463 236.128 305.463C229.031 305.463 222.185 302.841 216.904 298.1C218.484 294.309 221.15 291.069 224.567 288.789C227.984 286.509 231.998 285.291 236.106 285.287C240.214 285.283 244.231 286.494 247.652 288.767C251.073 291.041 253.745 294.275 255.332 298.064" fill="#183D3D"/>
<path d="M255.352 298.1C250.071 302.841 243.225 305.463 236.128 305.463C229.031 305.463 222.185 302.841 216.904 298.1C218.484 294.309 221.15 291.069 224.567 288.789C227.984 286.509 231.998 285.291 236.106 285.287C240.214 285.283 244.231 286.494 247.652 288.767C251.073 291.041 253.745 294.275 255.332 298.064" stroke="#5C8374" stroke-width="4" stroke-linecap="round" stroke-linejoin="round"/>
<path d="M226.944 270.216C227.187 268.349 227.994 266.601 229.256 265.205C230.518 263.809 232.176 262.83 234.009 262.401C235.842 261.971 237.762 262.11 239.513 262.799C241.265 263.489 242.764 264.696 243.812 266.26C241.621 268.383 238.895 269.873 235.925 270.569C232.954 271.266 229.851 271.144 226.944 270.216Z" fill="white" stroke="#5C8374" stroke-width="4" stroke-linecap="round" stroke-linejoin="round"/>
<path d="M300.22 238.736L220.988 204.736M177.52 114.728L260.412 146.2L177.52 114.728ZM307.772 232.232L294.732 182.532L307.772 232.232ZM140.688 196.404L99.396 205.384L140.688 196.404ZM305.088 101.84L297.12 127.304L305.088 101.84ZM109.688 139.152L147.1 164.412L109.688 139.152ZM89.5 89.492L89.228 66.144L89.5 89.492ZM109.076 96.796L157.912 22.824L109.076 96.796ZM61.616 123.416L24.692 120.288L61.616 123.416ZM89.504 147.016L88.524 196.448L89.504 147.016Z" stroke="#5C8374" stroke-width="4" stroke-linecap="round" stroke-linejoin="round"/>
<path d="M80.668 117.588C80.6424 118.819 80.8628 120.044 81.3164 121.189C81.7699 122.334 82.4475 123.377 83.3093 124.257C84.1712 125.137 85.2 125.836 86.3355 126.313C87.471 126.791 88.6903 127.036 89.922 127.036C91.1537 127.036 92.373 126.791 93.5085 126.313C94.644 125.836 95.6728 125.137 96.5347 124.257C97.3965 123.377 98.0741 122.334 98.5276 121.189C98.9812 120.044 99.2016 118.819 99.176 117.588V112.96C99.2016 111.729 98.9812 110.504 98.5276 109.359C98.0741 108.214 97.3965 107.171 96.5347 106.291C95.6728 105.411 94.644 104.712 93.5085 104.235C92.373 103.757 91.1537 103.512 89.922 103.512C88.6903 103.512 87.471 103.757 86.3355 104.235C85.2 104.712 84.1712 105.411 83.3093 106.291C82.4475 107.171 81.7699 108.214 81.3164 109.359C80.8628 110.504 80.6424 111.729 80.668 112.96V117.588Z" fill="white" stroke="#5C8374" stroke-width="4" stroke-linecap="round" stroke-linejoin="round"/>
<path d="M80.744 111.764C80.9861 109.897 81.7919 108.149 83.0537 106.752C84.3156 105.355 85.9735 104.376 87.8062 103.946C89.6388 103.517 91.559 103.656 93.3104 104.346C95.0617 105.036 96.561 106.244 97.608 107.808C95.4183 109.932 92.6932 111.422 89.7232 112.119C86.7532 112.815 83.6498 112.693 80.744 111.764Z" fill="white" stroke="#5C8374" stroke-width="4" stroke-linecap="round" stroke-linejoin="round"/>
</svg>
