<svg width="840" height="840" viewBox="0 0 840 840" fill="none" xmlns="http://www.w3.org/2000/svg">
<circle cx="420" cy="420" r="385" fill="#5C8374" stroke="#040D12" stroke-width="70"/>
<path d="M385 691.4V626.6C355.8 621 331.6 607 312.4 584.6C293.6 562.2 284.2 530.8 284.2 490.4L359.8 486.8C359.8 510.8 364 528.2 372.4 539C381.2 549.8 394.6 555.2 412.6 555.2C430.6 555.2 445.6 550.4 457.6 540.8C470 531.2 476.2 518.4 476.2 502.4C476.2 473.6 462.6 456.6 435.4 451.4L379.6 444.2C351.6 439 329.4 426.6 313 407C297 387.4 289 360.6 289 326.6C289 292.6 297.6 264.4 314.8 242C332 219.6 355.4 205.2 385 198.8V154.4H445.6V197.6C478 202.8 503.6 216.2 522.4 237.8C541.6 259 551.2 285.2 551.2 316.4L476.2 320C473 300 466.6 286.4 457 279.2C447.4 271.6 435 267.8 419.8 267.8C405 267.8 392.8 273.2 383.2 284C374 294.8 369.4 307.2 369.4 321.2C369.4 334.8 373.4 345.8 381.4 354.2C389.4 362.2 399.2 367.2 410.8 369.2L449.8 376.4C481 381.6 507 394.6 527.8 415.4C548.6 435.8 559 463.2 559 497.6C559 532 547.6 560.4 524.8 582.8C502.4 605.2 476 619.6 445.6 626V691.4H385Z" fill="#183D3D"/>
</svg>
