<svg width="337" height="320" viewBox="0 0 337 320" fill="none" xmlns="http://www.w3.org/2000/svg">
<path d="M0 160C0 202.435 16.8571 243.131 46.8629 273.137C76.8687 303.143 117.565 320 160 320C202.435 320 243.131 303.143 273.137 273.137C303.143 243.131 320 202.435 320 160C320 117.565 303.143 76.8687 273.137 46.8629C243.131 16.8571 202.435 0 160 0C117.565 0 76.8687 16.8571 46.8629 46.8629C16.8571 76.8687 0 117.565 0 160Z" fill="#D9EDFF"/>
<path d="M235.46 261.224H86.26C83.5887 261.224 81.0269 260.163 79.138 258.274C77.2491 256.385 76.188 253.823 76.188 251.152V58C76.188 55.2152 77.2942 52.5445 79.2634 50.5754C81.2325 48.6062 83.9032 47.5 86.688 47.5H235.008C237.793 47.5 240.463 48.6062 242.433 50.5754C244.402 52.5445 245.508 55.2152 245.508 58V251.152C245.509 253.819 244.452 256.378 242.568 258.267C240.684 260.155 238.127 261.219 235.46 261.224Z" fill="#183D3D"/>
<path d="M235.46 261.224H86.26C83.5887 261.224 81.0269 260.163 79.138 258.274C77.2491 256.385 76.188 253.823 76.188 251.152V58C76.188 55.2152 77.2942 52.5445 79.2634 50.5754C81.2325 48.6062 83.9032 47.5 86.688 47.5H235.008C237.793 47.5 240.463 48.6062 242.433 50.5754C244.402 52.5445 245.508 55.2152 245.508 58V251.152C245.509 253.819 244.452 256.378 242.568 258.267C240.684 260.155 238.127 261.219 235.46 261.224V261.224Z" stroke="#02A370" stroke-width="4" stroke-linecap="round" stroke-linejoin="round"/>
<path d="M92.848 64.148H228.856V244.568H92.848V64.148Z" fill="white"/>
<path d="M228.856 125.956L189.36 168.756C186.869 171.462 185.555 175.047 185.705 178.722C185.855 182.396 187.457 185.862 190.16 188.356C191.856 189.919 193.92 191.029 196.16 191.58L183.32 204.424L185.284 206.388L167.94 223.728C167.164 224.501 166.633 225.486 166.414 226.56C166.196 227.634 166.3 228.748 166.712 229.763C167.125 230.778 167.829 231.648 168.735 232.265C169.641 232.881 170.708 233.216 171.804 233.228C172.207 233.227 172.609 233.186 173.004 233.104C188.204 229.872 195.936 225.204 196.024 219.212L197.072 218.16L201 222.088L210.66 212.4C211.345 212.948 212.078 213.431 212.852 213.844C215.406 215.204 218.322 215.731 221.191 215.352C224.059 214.974 226.738 213.708 228.852 211.732L228.856 125.956Z" fill="#183D3D"/>
<path d="M92.848 64.148H228.856V244.568H92.848V64.148Z" stroke="#02A370" stroke-width="4" stroke-linecap="round" stroke-linejoin="round"/>
<path d="M112.236 108.56H197.048" stroke="#02A370" stroke-width="4" stroke-linecap="round" stroke-linejoin="round"/>
<path d="M112.236 133.54H197.048" stroke="#02A370" stroke-width="4" stroke-linecap="round" stroke-linejoin="round"/>
<path d="M112.236 161.3H171.348" stroke="#02A370" stroke-width="4" stroke-linecap="round" stroke-linejoin="round"/>
<path d="M122.864 39.168H198.84C200.173 39.1722 201.45 39.7047 202.391 40.6487C203.332 41.5926 203.86 42.8711 203.86 44.204V70.204C203.86 71.5407 203.329 72.8226 202.384 73.7678C201.439 74.713 200.157 75.244 198.82 75.244H122.868C121.531 75.244 120.249 74.713 119.304 73.7678C118.359 72.8226 117.828 71.5407 117.828 70.204V44.204C117.828 42.8684 118.359 41.5874 119.303 40.643C120.247 39.6986 121.528 39.168 122.864 39.168Z" fill="white"/>
<path d="M122.864 39.168H198.84C200.173 39.1722 201.45 39.7047 202.391 40.6487C203.332 41.5926 203.86 42.8711 203.86 44.204V70.204C203.86 71.5407 203.329 72.8226 202.384 73.7678C201.439 74.713 200.157 75.244 198.82 75.244H122.868C121.531 75.244 120.249 74.713 119.304 73.7678C118.359 72.8226 117.828 71.5407 117.828 70.204V44.204C117.828 42.8684 118.359 41.5874 119.303 40.643C120.247 39.6986 121.528 39.168 122.864 39.168V39.168Z" stroke="#02A370" stroke-width="4" stroke-linecap="round" stroke-linejoin="round"/>
<path d="M137.256 64.148H184.444" stroke="#02A370" stroke-width="4" stroke-linecap="round" stroke-linejoin="round"/>
<path d="M148.36 36.392C148.36 38.2147 148.719 40.0196 149.417 41.7036C150.114 43.3876 151.136 44.9178 152.425 46.2066C153.714 47.4955 155.244 48.5179 156.928 49.2154C158.612 49.913 160.417 50.272 162.24 50.272C164.063 50.272 165.868 49.913 167.552 49.2154C169.236 48.5179 170.766 47.4955 172.055 46.2066C173.344 44.9178 174.366 43.3876 175.063 41.7036C175.761 40.0196 176.12 38.2147 176.12 36.392C176.12 34.5692 175.761 32.7643 175.063 31.0803C174.366 29.3963 173.344 27.8662 172.055 26.5773C170.766 25.2885 169.236 24.2661 167.552 23.5685C165.868 22.871 164.063 22.512 162.24 22.512C160.417 22.512 158.612 22.871 156.928 23.5685C155.244 24.2661 153.714 25.2885 152.425 26.5773C151.136 27.8662 150.114 29.3963 149.417 31.0803C148.719 32.7643 148.36 34.5692 148.36 36.392Z" fill="white"/>
<path d="M148.36 36.392C148.36 38.2147 148.719 40.0196 149.417 41.7036C150.114 43.3876 151.136 44.9178 152.425 46.2066C153.714 47.4955 155.244 48.5179 156.928 49.2154C158.612 49.913 160.417 50.272 162.24 50.272C164.063 50.272 165.868 49.913 167.552 49.2154C169.236 48.5179 170.766 47.4955 172.055 46.2066C173.344 44.9178 174.366 43.3876 175.063 41.7036C175.761 40.0196 176.12 38.2147 176.12 36.392C176.12 34.5692 175.761 32.7643 175.063 31.0803C174.366 29.3963 173.344 27.8662 172.055 26.5773C170.766 25.2885 169.236 24.2661 167.552 23.5685C165.868 22.871 164.063 22.512 162.24 22.512C160.417 22.512 158.612 22.871 156.928 23.5685C155.244 24.2661 153.714 25.2885 152.425 26.5773C151.136 27.8662 150.114 29.3963 149.417 31.0803C148.719 32.7643 148.36 34.5692 148.36 36.392V36.392Z" stroke="#02A370" stroke-width="4" stroke-linecap="round" stroke-linejoin="round"/>
<path d="M219.288 159.572L267.908 177.708L288.36 144.908L235.496 130.632L219.288 159.572Z" fill="#D9EDFF"/>
<path d="M296.8 214.916L334.456 177.26C334.603 177.118 334.758 176.985 334.92 176.86C322.316 165.924 319.208 142.756 294.968 130.1C263.06 113.436 223.596 117.412 188.932 160.7C188.138 161.642 187.541 162.733 187.174 163.909C186.807 165.085 186.679 166.322 186.796 167.549C186.914 168.775 187.274 169.965 187.858 171.05C188.441 172.135 189.235 173.093 190.193 173.867C191.151 174.642 192.254 175.217 193.437 175.56C194.62 175.903 195.86 176.006 197.083 175.864C198.307 175.722 199.49 175.337 200.563 174.732C201.636 174.127 202.577 173.313 203.332 172.34C205.631 169.497 207.94 166.851 210.26 164.4C211.075 165.271 212.052 165.974 213.136 166.472C249.404 193.932 256.736 197.42 265.608 200.872C279.328 206.204 285.384 208.78 295.472 217.912C295.533 216.784 296.005 215.718 296.8 214.916ZM271.952 156.304C268.896 160.001 264.644 162.515 259.931 163.409C255.219 164.303 250.342 163.521 246.144 161.2L224.696 151.392C237.212 142.232 249.84 138.408 262.416 140.048C273.116 141.424 275.592 150.888 271.952 156.304Z" fill="white"/>
<path d="M99.764 293.36C99.764 295.202 106.106 296.968 117.395 298.27C128.684 299.572 143.995 300.304 159.96 300.304C175.925 300.304 191.236 299.572 202.525 298.27C213.814 296.968 220.156 295.202 220.156 293.36C220.156 291.518 213.814 289.752 202.525 288.45C191.236 287.148 175.925 286.416 159.96 286.416C143.995 286.416 128.684 287.148 117.395 288.45C106.106 289.752 99.764 291.518 99.764 293.36Z" fill="#183D3D"/>
<path d="M120.708 190.144C119.273 191.578 118.214 193.344 117.624 195.286C117.035 197.227 116.933 199.284 117.329 201.274C117.724 203.264 118.604 205.126 119.891 206.694C121.178 208.263 122.832 209.49 124.706 210.266C126.581 211.043 128.618 211.345 130.637 211.146C132.656 210.948 134.595 210.254 136.282 209.127C137.969 207.999 139.352 206.473 140.308 204.684C141.264 202.895 141.764 200.897 141.764 198.868V201.332C141.738 202.645 141.973 203.95 142.457 205.17C142.942 206.391 143.664 207.503 144.584 208.441C145.503 209.378 146.6 210.123 147.81 210.632C149.021 211.141 150.321 211.403 151.634 211.403C152.947 211.403 154.247 211.141 155.458 210.632C156.668 210.123 157.765 209.378 158.684 208.441C159.604 207.503 160.326 206.391 160.811 205.17C161.295 203.95 161.53 202.645 161.504 201.332C161.504 203.949 162.544 206.459 164.394 208.31C166.245 210.16 168.755 211.2 171.372 211.2H178.772" stroke="#02A370" stroke-width="4" stroke-linecap="round" stroke-linejoin="round"/>
<path d="M243.104 163.356C244.319 163.421 245.509 163.725 246.607 164.25C247.705 164.775 248.688 165.511 249.501 166.416C250.314 167.321 250.941 168.378 251.346 169.525C251.751 170.673 251.925 171.889 251.86 173.104L250.232 203.16C250.166 204.374 249.862 205.564 249.336 206.661C248.81 207.758 248.074 208.74 247.168 209.552C246.263 210.364 245.207 210.99 244.059 211.394C242.912 211.798 241.696 211.972 240.482 211.906C239.268 211.84 238.078 211.536 236.981 211.01C235.884 210.484 234.902 209.748 234.09 208.842C233.278 207.937 232.652 206.881 232.248 205.733C231.844 204.586 231.67 203.37 231.736 202.156L233.364 172.104C233.496 169.653 234.597 167.354 236.423 165.714C238.249 164.073 240.653 163.225 243.104 163.356Z" fill="#D9EDFF" stroke="#02A370" stroke-width="4" stroke-linecap="round" stroke-linejoin="round"/>
<path d="M233.536 160.468C235.703 161.623 237.323 163.592 238.04 165.941C238.756 168.29 238.51 170.828 237.356 172.996L226.304 194.508C225.149 196.676 223.181 198.296 220.831 199.013C218.482 199.729 215.944 199.483 213.776 198.328C211.608 197.173 209.988 195.205 209.271 192.855C208.555 190.506 208.801 187.968 209.956 185.8L221.008 164.288C222.163 162.121 224.132 160.501 226.481 159.784C228.83 159.068 231.368 159.314 233.536 160.468Z" fill="#D9EDFF" stroke="#02A370" stroke-width="4" stroke-linecap="round" stroke-linejoin="round"/>
<path d="M334.456 177.26C334.603 177.118 334.758 176.985 334.92 176.86C322.316 165.924 319.208 142.756 294.968 130.1C263.06 113.436 223.596 117.412 188.932 160.7C188.138 161.642 187.541 162.733 187.174 163.909C186.807 165.085 186.679 166.322 186.796 167.549C186.914 168.775 187.274 169.965 187.858 171.05C188.441 172.135 189.235 173.093 190.193 173.867C191.151 174.642 192.254 175.217 193.437 175.56C194.62 175.903 195.86 176.006 197.083 175.864C198.307 175.722 199.49 175.337 200.563 174.732C201.636 174.127 202.577 173.313 203.332 172.34C205.631 169.497 207.94 166.851 210.26 164.4C211.075 165.271 212.052 165.974 213.136 166.472C249.404 193.932 256.736 197.42 265.608 200.872C279.328 206.204 285.384 208.78 295.472 217.912L334.456 177.26ZM271.968 156.312C268.91 160.012 264.655 162.526 259.939 163.419C255.222 164.311 250.342 163.527 246.144 161.2L224.696 151.392C237.212 142.232 249.84 138.408 262.416 140.048C273.116 141.424 275.592 150.888 271.952 156.304L271.968 156.312Z" stroke="#02A370" stroke-width="4" stroke-linecap="round" stroke-linejoin="round"/>
<path d="M263.932 158.144L251.86 141.156L289.46 114.448C290.472 113.729 291.615 113.217 292.825 112.94C294.034 112.663 295.287 112.627 296.51 112.835C297.734 113.042 298.905 113.488 299.956 114.148C301.007 114.808 301.918 115.668 302.636 116.68L303.76 118.26C304.479 119.272 304.991 120.415 305.268 121.625C305.545 122.834 305.581 124.087 305.373 125.31C305.166 126.534 304.72 127.705 304.06 128.756C303.4 129.807 302.54 130.718 301.528 131.436L263.932 158.144Z" fill="#183D3D"/>
<path d="M263.932 158.144L251.86 141.156L289.46 114.448C290.472 113.729 291.615 113.217 292.825 112.94C294.034 112.663 295.287 112.627 296.51 112.835C297.734 113.042 298.905 113.488 299.956 114.148C301.007 114.808 301.918 115.668 302.636 116.68L303.76 118.26C304.479 119.272 304.991 120.415 305.268 121.625C305.545 122.834 305.581 124.087 305.373 125.31C305.166 126.534 304.72 127.705 304.06 128.756C303.4 129.807 302.54 130.718 301.528 131.436L263.932 158.144Z" stroke="#02A370" stroke-width="4" stroke-linecap="round" stroke-linejoin="round"/>
<path d="M253.504 131.472L279.932 112.7C280.669 112.153 281.508 111.76 282.401 111.545C283.293 111.331 284.219 111.3 285.124 111.453C286.029 111.606 286.893 111.941 287.665 112.437C288.437 112.933 289.101 113.581 289.616 114.34" stroke="#02A370" stroke-width="4" stroke-linecap="round" stroke-linejoin="round"/>
<path d="M192.744 188.832L174.18 202.032C173.77 202.317 173.463 202.728 173.306 203.202C173.149 203.677 173.15 204.189 173.308 204.663C173.467 205.137 173.775 205.547 174.186 205.831C174.597 206.115 175.089 206.259 175.588 206.24C183.372 205.92 194.496 204.508 194.332 199.076L198.108 196.396L192.744 188.832Z" fill="#183D3D" stroke="#02A370" stroke-width="4" stroke-linecap="round" stroke-linejoin="round"/>
<path d="M199.46 198.272L192.756 188.832C192.401 188.331 192.259 187.71 192.362 187.105C192.465 186.499 192.803 185.96 193.304 185.604L202.74 178.9L212.128 192.1L202.66 198.8C202.164 199.148 201.55 199.288 200.952 199.19C200.354 199.091 199.818 198.761 199.46 198.272Z" fill="white"/>
<path d="M199.46 198.272L192.756 188.832C192.401 188.331 192.259 187.71 192.362 187.105C192.465 186.499 192.803 185.96 193.304 185.604L202.74 178.9L212.128 192.1L202.66 198.8C202.164 199.148 201.55 199.288 200.952 199.19C200.354 199.091 199.818 198.761 199.46 198.272V198.272Z" stroke="#02A370" stroke-width="4" stroke-linecap="round" stroke-linejoin="round"/>
<path d="M210.776 190.224L204.072 180.8C203.72 180.304 203.468 179.744 203.332 179.152C203.196 178.559 203.179 177.945 203.28 177.346C203.382 176.746 203.6 176.172 203.923 175.657C204.247 175.142 204.668 174.696 205.164 174.344L251.86 141.156L263.928 158.144L217.232 191.32C216.736 191.672 216.176 191.923 215.583 192.059C214.99 192.194 214.376 192.212 213.777 192.11C213.177 192.008 212.604 191.789 212.089 191.466C211.574 191.142 211.128 190.72 210.776 190.224Z" fill="#183D3D"/>
<path d="M210.776 190.224L204.072 180.8C203.72 180.304 203.468 179.744 203.332 179.152C203.196 178.559 203.179 177.945 203.28 177.346C203.382 176.746 203.6 176.172 203.923 175.657C204.247 175.142 204.668 174.696 205.164 174.344L251.86 141.156L263.928 158.144L217.232 191.32C216.736 191.672 216.176 191.923 215.583 192.059C214.99 192.194 214.376 192.212 213.777 192.11C213.177 192.008 212.604 191.789 212.089 191.466C211.574 191.142 211.128 190.72 210.776 190.224Z" stroke="#02A370" stroke-width="4" stroke-linecap="round" stroke-linejoin="round"/>
<path d="M271.952 156.304C268.896 160.001 264.644 162.515 259.931 163.409C255.219 164.303 250.342 163.521 246.144 161.2L220.824 149.6C219.715 149.072 218.512 148.77 217.284 148.712C216.057 148.653 214.831 148.839 213.676 149.259C212.522 149.679 211.463 150.325 210.56 151.158C209.657 151.991 208.929 152.996 208.418 154.113C207.908 155.23 207.624 156.438 207.584 157.665C207.544 158.893 207.749 160.117 208.187 161.265C208.624 162.413 209.286 163.462 210.133 164.352C210.98 165.242 211.995 165.954 213.12 166.448C249.388 193.912 256.72 197.396 265.592 200.848" fill="white"/>
<path d="M271.952 156.304C268.896 160.001 264.644 162.515 259.931 163.409C255.219 164.303 250.342 163.521 246.144 161.2L220.824 149.6C219.715 149.072 218.512 148.77 217.284 148.712C216.057 148.653 214.831 148.839 213.676 149.259C212.522 149.679 211.463 150.325 210.56 151.158C209.657 151.991 208.929 152.996 208.418 154.113C207.908 155.23 207.624 156.438 207.584 157.665C207.544 158.893 207.749 160.117 208.187 161.265C208.624 162.413 209.286 163.462 210.133 164.352C210.98 165.242 211.995 165.954 213.12 166.448C249.388 193.912 256.72 197.396 265.592 200.848" stroke="#02A370" stroke-width="4" stroke-linecap="round" stroke-linejoin="round"/>
<path d="M271.952 156.304C268.896 160.001 264.644 162.515 259.931 163.409C255.219 164.303 250.342 163.521 246.144 161.2L220.824 149.6C219.715 149.072 218.512 148.77 217.284 148.712C216.057 148.653 214.831 148.839 213.676 149.259C212.522 149.679 211.463 150.325 210.56 151.158C209.657 151.991 208.929 152.996 208.418 154.113C207.908 155.23 207.624 156.438 207.584 157.665C207.544 158.893 207.749 160.117 208.187 161.265C208.624 162.413 209.286 163.462 210.133 164.352C210.98 165.242 211.995 165.954 213.12 166.448C249.388 193.912 256.72 197.396 265.592 200.848" fill="white"/>
<path d="M271.952 156.304C268.896 160.001 264.644 162.515 259.931 163.409C255.219 164.303 250.342 163.521 246.144 161.2L220.824 149.6C219.715 149.072 218.512 148.77 217.284 148.712C216.057 148.653 214.831 148.839 213.676 149.259C212.522 149.679 211.463 150.325 210.56 151.158C209.657 151.991 208.929 152.996 208.418 154.113C207.908 155.23 207.624 156.438 207.584 157.665C207.544 158.893 207.749 160.117 208.187 161.265C208.624 162.413 209.286 163.462 210.133 164.352C210.98 165.242 211.995 165.954 213.12 166.448C249.388 193.912 256.72 197.396 265.592 200.848" stroke="#02A370" stroke-width="4" stroke-linecap="round" stroke-linejoin="round"/>
</svg>
